<svg width="396" height="220" viewBox="0 0 396 220" fill="none" xmlns="http://www.w3.org/2000/svg">
<path d="M-105.953 -220.374C-86.8763 -234.987 -59.3079 -262.556 -44.7197 -281.608L-19.5818 -314.398C-4.96901 -333.474 25.1648 -341.534 47.3985 -332.277L85.5905 -316.414C107.8 -307.181 145.497 -297.052 169.342 -293.92L210.343 -288.518C234.189 -285.385 256.287 -263.287 259.42 -239.441L264.822 -198.44C267.954 -174.594 278.108 -136.922 287.316 -114.688L303.179 -76.4963C312.412 -54.2871 304.352 -24.1533 285.3 -9.51603L252.51 15.6218C233.433 30.2346 205.865 57.803 191.277 76.855L166.139 109.645C151.526 128.721 121.392 136.782 99.1585 127.524L60.9665 111.661C38.7573 102.428 1.06034 92.2997 -22.7854 89.1669L-63.7864 83.7649C-87.6321 80.6322 -109.73 58.5343 -112.863 34.6886L-118.265 -6.3124C-121.398 -30.1581 -131.551 -67.8306 -140.759 -90.0643L-156.647 -128.281C-165.855 -150.515 -157.795 -180.648 -138.743 -195.237L-105.953 -220.374Z" fill="#EE2B45"/>
</svg>
